<svg xmlns="http://www.w3.org/2000/svg" width="1200" height="900" viewBox="0 0 1200 900"><rect width="1200" height="900" fill="#0C1117"></rect><path d="M 649.5 300.0 Q 649.5 300.0 629.7 355.4 Q 609.9 410.7 586.3 469.9 Q 562.7 529.1 502.0 549.0 Q 441.4 569.0 385.2 546.4 Q 328.9 523.8 272.6 514.5 Q 216.3 505.2 190.6 454.4 Q 164.9 403.6 136.6 351.8 Q 108.3 300.0 111.6 236.2 Q 114.9 172.3 167.2 135.5 Q 219.5 98.7 273.4 84.0 Q 327.4 69.3 386.6 40.5 Q 445.8 11.7 501.1 45.2 Q 556.4 78.7 577.2 136.9 Q 598.0 195.0 623.7 247.5 Z" fill="rgba(35,52,48,0.30)"></path><path d="M 1087.3 560.0 Q 1087.3 560.0 1088.8 625.1 Q 1090.4 690.2 1055.0 750.3 Q 1019.6 810.3 954.5 837.2 Q 889.4 864.1 827.3 832.2 Q 765.2 800.2 700.0 796.2 Q 634.9 792.1 575.9 749.0 Q 516.9 706.0 542.7 633.0 Q 568.5 560.0 554.6 492.8 Q 540.7 425.5 602.6 395.3 Q 664.5 365.0 711.7 328.5 Q 758.8 292.1 817.5 302.9 Q 876.2 313.7 931.1 332.8 Q 985.9 352.0 1051.9 384.3 Q 1117.9 416.5 1102.6 488.3 Z" fill="rgba(40,50,60,0.28)"></path><path d="M 802.0 200.0 Q 802.0 200.0 778.3 232.4 Q 754.6 264.8 736.8 294.5 Q 719.0 324.2 692.0 360.6 Q 665.0 397.1 622.6 385.9 Q 580.1 374.7 537.7 365.5 Q 495.3 356.4 481.8 314.7 Q 468.4 273.0 455.8 236.5 Q 443.2 200.0 464.0 167.5 Q 484.8 134.9 505.4 108.5 Q 525.9 82.0 552.5 51.5 Q 579.1 20.9 620.3 19.7 Q 661.4 18.4 691.7 45.3 Q 721.9 72.2 756.3 95.0 Q 790.7 117.8 796.3 158.9 Z" fill="rgba(45,55,50,0.22)"></path><g opacity="0.85"><path d="M 1084.3 250.0 Q 1084.3 250.0 1080.0 280.2 Q 1075.6 310.5 1063.6 343.9 Q 1051.6 377.3 1019.6 396.2 Q 987.7 415.1 952.1 405.9 Q 916.5 396.7 891.5 375.7 Q 866.4 354.8 845.9 332.4 Q 825.4 310.0 818.3 280.0 Q 811.2 250.0 823.4 222.4 Q 835.5 194.9 843.3 160.4 Q 851.1 126.0 882.8 110.1 Q 914.4 94.2 950.1 93.9 Q 985.7 93.6 1021.8 104.1 Q 1057.9 114.7 1061.5 154.6 Q 1065.1 194.6 1074.7 222.3 Z" fill="rgba(43,110,160,0.20)"></path></g><g opacity="0.7"><path d="M 379.2 720.0 Q 379.2 720.0 362.3 745.4 Q 345.4 770.8 336.1 799.8 Q 326.7 828.8 295.0 825.2 Q 263.2 821.7 240.1 821.2 Q 217.0 820.6 197.6 809.0 Q 178.2 797.5 157.8 783.5 Q 137.3 769.5 129.1 744.7 Q 120.8 720.0 124.2 692.9 Q 127.5 665.8 141.0 639.3 Q 154.4 612.7 185.9 616.7 Q 217.4 620.8 243.1 607.3 Q 268.8 593.8 297.7 602.6 Q 326.5 611.5 333.0 641.8 Q 339.5 672.1 359.3 696.0 Z" fill="rgba(43,110,160,0.18)"></path></g><path d="M 508.4 300.0 Q 508.4 300.0 512.4 323.2 Q 516.4 346.3 508.2 372.4 Q 500.0 398.4 472.1 412.7 Q 444.1 426.9 412.0 422.3 Q 380.0 417.8 355.6 407.2 Q 331.2 396.7 306.3 388.7 Q 281.5 380.7 254.9 366.1 Q 228.3 351.5 218.4 325.8 Q 208.4 300.0 223.8 276.1 Q 239.2 252.2 263.6 238.3 Q 287.9 224.5 308.6 212.1 Q 329.3 199.6 354.6 185.7 Q 380.0 171.8 413.0 170.6 Q 446.0 169.4 469.8 188.1 Q 493.7 206.8 499.6 232.1 Q 505.5 257.4 507.0 278.7 Z" fill="none" stroke="rgba(180,200,215,0.07)" stroke-width="1"></path><path d="M 486.4 300.0 Q 486.4 300.0 481.2 316.3 Q 476.0 332.6 470.9 351.5 Q 465.8 370.3 449.1 387.1 Q 432.5 403.9 406.2 406.0 Q 380.0 408.0 358.6 396.4 Q 337.2 384.8 322.5 372.0 Q 307.8 359.2 291.1 347.5 Q 274.4 335.9 260.4 317.9 Q 246.4 300.0 250.3 278.6 Q 254.3 257.3 275.2 244.2 Q 296.1 231.2 318.3 226.6 Q 340.6 222.0 360.3 216.6 Q 380.0 211.2 404.5 207.1 Q 429.0 203.0 453.3 211.5 Q 477.5 220.0 486.8 240.3 Q 496.1 260.6 491.2 280.3 Z" fill="none" stroke="rgba(180,200,215,0.07)" stroke-width="1"></path><path d="M 471.9 300.0 Q 471.9 300.0 462.2 312.3 Q 452.4 324.6 444.2 335.3 Q 436.0 345.9 425.9 358.3 Q 415.7 370.7 397.9 377.7 Q 380.0 384.8 361.5 379.1 Q 342.9 373.4 332.5 360.4 Q 322.1 347.5 315.5 335.8 Q 308.9 324.1 300.4 312.1 Q 291.9 300.0 289.0 284.1 Q 286.1 268.1 297.4 254.8 Q 308.7 241.6 327.8 238.0 Q 346.8 234.4 363.4 235.8 Q 380.0 237.2 395.9 237.1 Q 411.8 237.0 430.6 240.1 Q 449.4 243.1 462.3 255.4 Q 475.2 267.7 473.6 283.8 Z" fill="none" stroke="rgba(180,200,215,0.13)" stroke-width="1.3"></path><path d="M 448.2 300.0 Q 448.2 300.0 441.7 309.4 Q 435.1 318.7 425.8 324.3 Q 416.5 329.9 408.5 335.4 Q 400.6 340.8 390.3 346.5 Q 380.0 352.3 366.8 352.3 Q 353.6 352.3 344.5 344.4 Q 335.4 336.6 333.0 326.7 Q 330.7 316.8 329.4 308.4 Q 328.2 300.0 326.2 290.5 Q 324.3 281.1 327.9 270.7 Q 331.6 260.3 343.2 255.1 Q 354.7 249.9 367.3 251.9 Q 380.0 253.9 389.8 257.6 Q 399.5 261.4 409.9 264.2 Q 420.2 267.0 430.9 273.1 Q 441.5 279.1 444.9 289.6 Z" fill="none" stroke="rgba(180,200,215,0.07)" stroke-width="1"></path><path d="M 413.8 300.0 Q 413.8 300.0 412.5 305.3 Q 411.1 310.6 405.8 313.7 Q 400.5 316.8 395.2 318.1 Q 389.8 319.4 384.9 321.0 Q 380.0 322.6 373.8 323.6 Q 367.5 324.7 361.6 322.3 Q 355.7 319.9 353.6 314.8 Q 351.5 309.7 352.7 304.8 Q 353.8 300.0 354.7 295.9 Q 355.7 291.7 356.9 286.9 Q 358.1 282.0 362.5 278.0 Q 366.8 273.9 373.4 273.7 Q 380.0 273.4 385.2 276.3 Q 390.5 279.2 394.3 282.2 Q 398.1 285.2 402.5 288.0 Q 407.0 290.8 410.4 295.4 Z" fill="none" stroke="rgba(180,200,215,0.07)" stroke-width="1"></path><path d="M 992.5 560.0 Q 992.5 560.0 999.1 591.5 Q 1005.8 623.1 984.9 650.6 Q 964.0 678.1 925.9 686.1 Q 887.8 694.1 853.9 690.2 Q 820.0 686.3 788.8 685.0 Q 757.6 683.6 720.6 677.7 Q 683.5 671.9 656.2 648.4 Q 628.9 624.9 630.7 592.5 Q 632.5 560.0 652.8 535.1 Q 673.2 510.1 691.3 489.7 Q 709.5 469.4 729.7 445.4 Q 750.0 421.4 785.0 406.3 Q 820.0 391.1 857.7 401.0 Q 895.3 410.8 916.7 437.0 Q 938.1 463.2 949.8 487.6 Q 961.5 511.9 977.0 536.0 Z" fill="none" stroke="rgba(180,200,215,0.13)" stroke-width="1.3"></path><path d="M 948.4 560.0 Q 948.4 560.0 952.4 583.2 Q 956.4 606.3 948.2 632.4 Q 940.0 658.4 912.1 672.7 Q 884.1 686.9 852.0 682.3 Q 820.0 677.8 795.6 667.2 Q 771.2 656.7 746.3 648.7 Q 721.5 640.7 694.9 626.1 Q 668.3 611.5 658.4 585.8 Q 648.4 560.0 663.8 536.1 Q 679.2 512.2 703.6 498.3 Q 727.9 484.5 748.6 472.1 Q 769.3 459.6 794.6 445.7 Q 820.0 431.8 853.0 430.6 Q 886.0 429.4 909.8 448.1 Q 933.7 466.8 939.6 492.1 Q 945.5 517.4 947.0 538.7 Z" fill="none" stroke="rgba(180,200,215,0.07)" stroke-width="1"></path><path d="M 926.4 560.0 Q 926.4 560.0 921.2 576.3 Q 916.0 592.6 910.9 611.5 Q 905.8 630.3 889.1 647.1 Q 872.5 663.9 846.2 666.0 Q 820.0 668.0 798.6 656.4 Q 777.2 644.8 762.5 632.0 Q 747.8 619.2 731.1 607.5 Q 714.4 595.9 700.4 577.9 Q 686.4 560.0 690.3 538.6 Q 694.3 517.3 715.2 504.2 Q 736.1 491.2 758.3 486.6 Q 780.6 482.0 800.3 476.6 Q 820.0 471.2 844.5 467.1 Q 869.0 463.0 893.3 471.5 Q 917.5 480.0 926.8 500.3 Q 936.1 520.6 931.2 540.3 Z" fill="none" stroke="rgba(180,200,215,0.07)" stroke-width="1"></path><path d="M 911.9 560.0 Q 911.9 560.0 902.2 572.3 Q 892.4 584.6 884.2 595.3 Q 876.0 605.9 865.9 618.3 Q 855.7 630.7 837.9 637.7 Q 820.0 644.8 801.5 639.1 Q 782.9 633.4 772.5 620.4 Q 762.1 607.5 755.5 595.8 Q 748.9 584.1 740.4 572.1 Q 731.9 560.0 729.0 544.1 Q 726.1 528.1 737.4 514.8 Q 748.7 501.6 767.8 498.0 Q 786.8 494.4 803.4 495.8 Q 820.0 497.2 835.9 497.1 Q 851.8 497.0 870.6 500.1 Q 889.4 503.1 902.3 515.4 Q 915.2 527.7 913.6 543.8 Z" fill="none" stroke="rgba(180,200,215,0.13)" stroke-width="1.3"></path><path d="M 888.2 560.0 Q 888.2 560.0 881.7 569.4 Q 875.1 578.7 865.8 584.3 Q 856.5 589.9 848.5 595.4 Q 840.6 600.8 830.3 606.5 Q 820.0 612.3 806.8 612.3 Q 793.6 612.3 784.5 604.4 Q 775.4 596.6 773.0 586.7 Q 770.7 576.8 769.4 568.4 Q 768.2 560.0 766.2 550.5 Q 764.3 541.1 767.9 530.7 Q 771.6 520.3 783.2 515.1 Q 794.7 509.9 807.3 511.9 Q 820.0 513.9 829.8 517.6 Q 839.5 521.4 849.9 524.2 Q 860.2 527.0 870.9 533.1 Q 881.5 539.1 884.9 549.6 Z" fill="none" stroke="rgba(180,200,215,0.07)" stroke-width="1"></path><path d="M 853.8 560.0 Q 853.8 560.0 852.5 565.3 Q 851.1 570.6 845.8 573.7 Q 840.5 576.8 835.2 578.1 Q 829.8 579.4 824.9 581.0 Q 820.0 582.6 813.8 583.6 Q 807.5 584.7 801.6 582.3 Q 795.7 579.9 793.6 574.8 Q 791.5 569.7 792.7 564.8 Q 793.8 560.0 794.7 555.9 Q 795.7 551.7 796.9 546.9 Q 798.1 542.0 802.5 538.0 Q 806.8 533.9 813.4 533.7 Q 820.0 533.4 825.2 536.3 Q 830.5 539.2 834.3 542.2 Q 838.1 545.2 842.5 548.0 Q 847.0 550.8 850.4 555.4 Z" fill="none" stroke="rgba(180,200,215,0.07)" stroke-width="1"></path><path d="M 717.5 210.0 Q 717.5 210.0 712.8 224.9 Q 708.0 239.9 703.3 257.2 Q 698.6 274.5 683.4 289.8 Q 668.1 305.2 644.0 307.1 Q 620.0 309.0 600.4 298.4 Q 580.7 287.7 567.3 276.0 Q 553.9 264.2 538.5 253.6 Q 523.2 242.9 510.3 226.4 Q 497.5 210.0 501.1 190.4 Q 504.8 170.9 523.9 158.9 Q 543.1 146.9 563.5 142.7 Q 583.9 138.5 601.9 133.6 Q 620.0 128.6 642.5 124.8 Q 664.9 121.1 687.2 128.9 Q 709.4 136.7 717.9 155.3 Q 726.4 173.9 722.0 191.9 Z" fill="none" stroke="rgba(180,200,215,0.07)" stroke-width="1"></path><path d="M 704.2 210.0 Q 704.2 210.0 695.3 221.3 Q 686.4 232.5 678.9 242.3 Q 671.3 252.1 662.0 263.5 Q 652.7 274.8 636.4 281.3 Q 620.0 287.7 603.0 282.5 Q 586.0 277.3 576.5 265.4 Q 566.9 253.5 560.9 242.8 Q 554.9 232.1 547.1 221.1 Q 539.2 210.0 536.6 195.4 Q 533.9 180.8 544.3 168.6 Q 554.7 156.4 572.1 153.1 Q 589.6 149.8 604.8 151.1 Q 620.0 152.4 634.6 152.3 Q 649.2 152.3 666.4 155.1 Q 683.6 157.9 695.4 169.1 Q 707.3 180.3 705.8 195.2 Z" fill="none" stroke="rgba(180,200,215,0.13)" stroke-width="1.3"></path><path d="M 682.5 210.0 Q 682.5 210.0 676.5 218.6 Q 670.5 227.2 662.0 232.3 Q 653.4 237.4 646.2 242.4 Q 638.9 247.4 629.4 252.7 Q 620.0 257.9 607.9 257.9 Q 595.8 257.9 587.4 250.7 Q 579.1 243.6 576.9 234.5 Q 574.8 225.4 573.6 217.7 Q 572.5 210.0 570.7 201.3 Q 568.9 192.6 572.3 183.1 Q 575.6 173.6 586.2 168.9 Q 596.8 164.1 608.4 165.9 Q 620.0 167.7 628.9 171.1 Q 637.9 174.6 647.4 177.2 Q 656.9 179.8 666.6 185.3 Q 676.4 190.8 679.4 200.4 Z" fill="none" stroke="rgba(180,200,215,0.07)" stroke-width="1"></path><path d="M 651.0 210.0 Q 651.0 210.0 649.8 214.8 Q 648.5 219.7 643.7 222.6 Q 638.8 225.4 633.9 226.6 Q 629.0 227.8 624.5 229.2 Q 620.0 230.7 614.3 231.7 Q 608.6 232.6 603.1 230.4 Q 597.7 228.3 595.8 223.6 Q 593.9 218.9 594.9 214.4 Q 596.0 210.0 596.8 206.2 Q 597.7 202.4 598.8 198.0 Q 599.9 193.5 603.9 189.8 Q 607.9 186.1 614.0 185.9 Q 620.0 185.6 624.8 188.3 Q 629.6 190.9 633.1 193.7 Q 636.6 196.4 640.7 199.0 Q 644.7 201.6 647.9 205.8 Z" fill="none" stroke="rgba(180,200,215,0.07)" stroke-width="1"></path><path d="M 639.9 640.0 Q 639.9 640.0 643.6 661.6 Q 647.3 683.2 639.7 707.6 Q 632.0 731.9 605.9 745.2 Q 579.8 758.4 549.9 754.2 Q 520.0 749.9 497.2 740.1 Q 474.4 730.2 451.3 722.8 Q 428.1 715.4 403.3 701.7 Q 378.5 688.1 369.2 664.0 Q 359.9 640.0 374.2 617.7 Q 388.6 595.4 411.3 582.4 Q 434.1 569.5 453.4 557.9 Q 472.7 546.3 496.3 533.3 Q 520.0 520.3 550.8 519.2 Q 581.6 518.1 603.8 535.6 Q 626.1 553.0 631.6 576.6 Q 637.1 600.2 638.5 620.1 Z" fill="none" stroke="rgba(180,200,215,0.07)" stroke-width="1"></path><path d="M 619.3 640.0 Q 619.3 640.0 614.4 655.2 Q 609.6 670.4 604.8 688.0 Q 600.1 705.7 584.5 721.3 Q 569.0 736.9 544.5 738.9 Q 520.0 740.8 500.0 730.0 Q 480.0 719.1 466.3 707.2 Q 452.7 695.2 437.0 684.4 Q 421.4 673.5 408.3 656.7 Q 395.3 640.0 399.0 620.1 Q 402.7 600.1 422.2 588.0 Q 441.7 575.8 462.5 571.5 Q 483.2 567.2 501.6 562.2 Q 520.0 557.2 542.9 553.3 Q 565.7 549.4 588.4 557.4 Q 611.0 565.3 619.7 584.3 Q 628.4 603.2 623.8 621.6 Z" fill="none" stroke="rgba(180,200,215,0.07)" stroke-width="1"></path><path d="M 605.8 640.0 Q 605.8 640.0 596.7 651.5 Q 587.6 663.0 579.9 672.9 Q 572.3 682.9 562.8 694.4 Q 553.3 706.0 536.7 712.6 Q 520.0 719.1 502.7 713.8 Q 485.4 708.5 475.7 696.4 Q 466.0 684.3 459.8 673.4 Q 453.7 662.5 445.7 651.3 Q 437.8 640.0 435.1 625.1 Q 432.4 610.2 442.9 597.8 Q 453.5 585.5 471.3 582.1 Q 489.1 578.7 504.5 580.0 Q 520.0 581.3 534.8 581.3 Q 549.7 581.2 567.2 584.1 Q 584.7 586.9 596.8 598.4 Q 608.9 609.8 607.3 624.9 Z" fill="none" stroke="rgba(180,200,215,0.13)" stroke-width="1.3"></path><path d="M 583.6 640.0 Q 583.6 640.0 577.5 648.7 Q 571.5 657.5 562.7 662.7 Q 554.0 667.9 546.6 673.0 Q 539.2 678.1 529.6 683.4 Q 520.0 688.8 507.7 688.8 Q 495.4 688.8 486.8 681.5 Q 478.3 674.2 476.1 664.9 Q 473.9 655.6 472.8 647.8 Q 471.6 640.0 469.8 631.2 Q 468.0 622.3 471.4 612.6 Q 474.8 603.0 485.6 598.1 Q 496.4 593.2 508.2 595.1 Q 520.0 596.9 529.1 600.4 Q 538.2 603.9 547.9 606.6 Q 557.5 609.2 567.5 614.9 Q 577.4 620.5 580.5 630.2 Z" fill="none" stroke="rgba(180,200,215,0.07)" stroke-width="1"></path><path d="M 551.5 640.0 Q 551.5 640.0 550.3 644.9 Q 549.1 649.9 544.1 652.8 Q 539.2 655.7 534.1 656.9 Q 529.1 658.1 524.6 659.6 Q 520.0 661.1 514.2 662.1 Q 508.4 663.0 502.8 660.8 Q 497.3 658.6 495.4 653.8 Q 493.4 649.0 494.5 644.5 Q 495.5 640.0 496.4 636.1 Q 497.3 632.3 498.4 627.8 Q 499.6 623.2 503.6 619.5 Q 507.7 615.7 513.9 615.4 Q 520.0 615.2 524.9 617.9 Q 529.8 620.6 533.3 623.4 Q 536.9 626.1 541.0 628.8 Q 545.2 631.4 548.4 635.7 Z" fill="none" stroke="rgba(180,200,215,0.07)" stroke-width="1"></path><path d="M 1068.6 640.0 Q 1068.6 640.0 1064.3 653.6 Q 1060.0 667.2 1055.7 682.9 Q 1051.5 698.6 1037.6 712.6 Q 1023.7 726.5 1001.9 728.3 Q 980.0 730.0 962.2 720.3 Q 944.3 710.7 932.1 700.0 Q 919.9 689.3 905.9 679.6 Q 892.0 669.9 880.3 655.0 Q 868.6 640.0 871.9 622.2 Q 875.2 604.4 892.6 593.5 Q 910.1 582.7 928.6 578.8 Q 947.2 575.0 963.6 570.5 Q 980.0 566.0 1000.4 562.6 Q 1020.8 559.1 1041.1 566.2 Q 1061.3 573.3 1069.0 590.2 Q 1076.7 607.1 1072.7 623.6 Z" fill="none" stroke="rgba(180,200,215,0.07)" stroke-width="1"></path><path d="M 1056.6 640.0 Q 1056.6 640.0 1048.5 650.2 Q 1040.3 660.5 1033.5 669.4 Q 1026.7 678.3 1018.2 688.6 Q 1009.8 698.9 994.9 704.8 Q 980.0 710.6 964.6 705.9 Q 949.1 701.2 940.4 690.4 Q 931.7 679.6 926.3 669.8 Q 920.8 660.1 913.7 650.1 Q 906.6 640.0 904.2 626.7 Q 901.8 613.4 911.2 602.4 Q 920.6 591.3 936.5 588.3 Q 952.4 585.3 966.2 586.5 Q 980.0 587.6 993.3 587.6 Q 1006.5 587.5 1022.2 590.1 Q 1037.8 592.6 1048.6 602.8 Q 1059.4 613.0 1058.0 626.5 Z" fill="none" stroke="rgba(180,200,215,0.13)" stroke-width="1.3"></path><path d="M 1036.8 640.0 Q 1036.8 640.0 1031.4 647.8 Q 1025.9 655.6 1018.2 660.3 Q 1010.4 664.9 1003.8 669.5 Q 997.2 674.0 988.6 678.8 Q 980.0 683.6 969.0 683.6 Q 958.0 683.6 950.4 677.0 Q 942.8 670.5 940.8 662.2 Q 938.9 654.0 937.9 647.0 Q 936.8 640.0 935.2 632.1 Q 933.6 624.2 936.6 615.6 Q 939.7 606.9 949.3 602.6 Q 958.9 598.3 969.5 599.9 Q 980.0 601.6 988.1 604.7 Q 996.3 607.8 1004.9 610.2 Q 1013.5 612.5 1022.4 617.6 Q 1031.3 622.6 1034.0 631.3 Z" fill="none" stroke="rgba(180,200,215,0.07)" stroke-width="1"></path><path d="M 1008.2 640.0 Q 1008.2 640.0 1007.0 644.4 Q 1005.9 648.8 1001.5 651.4 Q 997.1 654.0 992.6 655.1 Q 988.2 656.1 984.1 657.5 Q 980.0 658.8 974.8 659.7 Q 969.6 660.6 964.7 658.6 Q 959.7 656.6 958.0 652.3 Q 956.3 648.1 957.2 644.0 Q 958.2 640.0 959.0 636.6 Q 959.7 633.1 960.8 629.1 Q 961.8 625.0 965.4 621.7 Q 969.0 618.3 974.5 618.1 Q 980.0 617.8 984.4 620.3 Q 988.7 622.7 991.9 625.2 Q 995.1 627.6 998.8 630.0 Q 1002.5 632.4 1005.3 636.2 Z" fill="none" stroke="rgba(180,200,215,0.07)" stroke-width="1"></path><path d="M 264.2 440.0 Q 264.2 440.0 260.1 452.9 Q 256.0 465.8 252.0 480.8 Q 247.9 495.7 234.7 509.0 Q 221.5 522.2 200.8 523.9 Q 180.0 525.5 163.0 516.3 Q 146.1 507.1 134.5 497.0 Q 122.9 486.8 109.6 477.6 Q 96.4 468.4 85.3 454.2 Q 74.2 440.0 77.3 423.1 Q 80.5 406.2 97.0 395.9 Q 113.6 385.5 131.2 381.9 Q 148.8 378.3 164.4 374.0 Q 180.0 369.7 199.4 366.5 Q 218.8 363.2 238.0 369.9 Q 257.2 376.7 264.6 392.7 Q 271.9 408.8 268.1 424.4 Z" fill="none" stroke="rgba(180,200,215,0.07)" stroke-width="1"></path><path d="M 252.8 440.0 Q 252.8 440.0 245.0 449.7 Q 237.3 459.5 230.8 467.9 Q 224.3 476.4 216.3 486.2 Q 208.3 496.0 194.1 501.5 Q 180.0 507.1 165.3 502.6 Q 150.7 498.1 142.4 487.8 Q 134.2 477.6 128.9 468.4 Q 123.7 459.1 117.0 449.6 Q 110.3 440.0 108.0 427.4 Q 105.7 414.8 114.6 404.2 Q 123.6 393.7 138.7 390.9 Q 153.8 388.0 166.9 389.1 Q 180.0 390.3 192.6 390.2 Q 205.2 390.1 220.1 392.6 Q 234.9 395.0 245.2 404.7 Q 255.4 414.4 254.1 427.2 Z" fill="none" stroke="rgba(180,200,215,0.13)" stroke-width="1.3"></path><path d="M 234.0 440.0 Q 234.0 440.0 228.8 447.4 Q 223.6 454.8 216.3 459.2 Q 208.9 463.7 202.6 468.0 Q 196.3 472.3 188.2 476.8 Q 180.0 481.4 169.5 481.4 Q 159.1 481.4 151.9 475.2 Q 144.7 469.0 142.8 461.1 Q 140.9 453.3 140.0 446.6 Q 139.0 440.0 137.4 432.5 Q 135.9 425.0 138.8 416.8 Q 141.7 408.6 150.8 404.5 Q 160.0 400.3 170.0 401.9 Q 180.0 403.5 187.7 406.4 Q 195.5 409.4 203.6 411.7 Q 211.8 413.9 220.3 418.7 Q 228.7 423.5 231.3 431.7 Z" fill="none" stroke="rgba(180,200,215,0.07)" stroke-width="1"></path><path d="M 206.7 440.0 Q 206.7 440.0 205.7 444.2 Q 204.6 448.4 200.5 450.9 Q 196.3 453.3 192.0 454.3 Q 187.7 455.3 183.9 456.6 Q 180.0 457.9 175.1 458.7 Q 170.1 459.5 165.4 457.7 Q 160.7 455.8 159.1 451.7 Q 157.5 447.7 158.4 443.8 Q 159.2 440.0 160.0 436.7 Q 160.8 433.5 161.7 429.6 Q 162.7 425.8 166.1 422.6 Q 169.6 419.4 174.8 419.1 Q 180.0 418.9 184.2 421.2 Q 188.3 423.5 191.3 425.9 Q 194.3 428.2 197.8 430.5 Q 201.4 432.7 204.1 436.4 Z" fill="none" stroke="rgba(180,200,215,0.07)" stroke-width="1"></path><path d="M 781.7 400.0 Q 781.7 400.0 773.0 410.9 Q 764.4 421.9 757.1 431.3 Q 749.8 440.8 740.8 451.8 Q 731.8 462.9 715.9 469.1 Q 700.0 475.3 683.5 470.3 Q 667.0 465.2 657.8 453.7 Q 648.5 442.2 642.7 431.8 Q 636.8 421.5 629.3 410.7 Q 621.7 400.0 619.1 385.8 Q 616.5 371.7 626.6 359.9 Q 636.6 348.0 653.6 344.9 Q 670.5 341.7 685.3 342.9 Q 700.0 344.1 714.1 344.1 Q 728.3 344.0 745.0 346.7 Q 761.7 349.4 773.2 360.3 Q 784.6 371.2 783.2 385.6 Z" fill="none" stroke="rgba(180,200,215,0.13)" stroke-width="1.3"></path><path d="M 760.6 400.0 Q 760.6 400.0 754.8 408.3 Q 749.0 416.6 740.7 421.6 Q 732.4 426.6 725.4 431.4 Q 718.3 436.3 709.2 441.4 Q 700.0 446.5 688.3 446.5 Q 676.5 446.5 668.4 439.5 Q 660.3 432.5 658.2 423.7 Q 656.1 414.9 655.0 407.4 Q 653.9 400.0 652.2 391.6 Q 650.5 383.2 653.7 374.0 Q 657.0 364.7 667.2 360.1 Q 677.5 355.5 688.8 357.2 Q 700.0 359.0 708.7 362.3 Q 717.4 365.7 726.5 368.2 Q 735.7 370.7 745.2 376.1 Q 754.7 381.4 757.6 390.7 Z" fill="none" stroke="rgba(180,200,215,0.07)" stroke-width="1"></path><path d="M 730.0 400.0 Q 730.0 400.0 728.9 404.7 Q 727.7 409.4 723.0 412.2 Q 718.3 415.0 713.5 416.1 Q 708.7 417.2 704.3 418.7 Q 700.0 420.1 694.5 421.0 Q 688.9 421.9 683.7 419.8 Q 678.4 417.7 676.5 413.2 Q 674.7 408.6 675.7 404.3 Q 676.7 400.0 677.5 396.3 Q 678.4 392.7 679.5 388.4 Q 680.5 384.0 684.4 380.4 Q 688.3 376.8 694.1 376.6 Q 700.0 376.4 704.7 378.9 Q 709.3 381.5 712.7 384.2 Q 716.1 386.8 720.0 389.3 Q 724.0 391.9 727.0 395.9 Z" fill="none" stroke="rgba(180,200,215,0.07)" stroke-width="1"></path><g opacity="0.5"><line x1="0" y1="0" x2="0" y2="900" stroke="rgba(255,255,255,0.025)" stroke-width="1"></line><line x1="120" y1="0" x2="120" y2="900" stroke="rgba(255,255,255,0.025)" stroke-width="1"></line><line x1="240" y1="0" x2="240" y2="900" stroke="rgba(255,255,255,0.025)" stroke-width="1"></line><line x1="360" y1="0" x2="360" y2="900" stroke="rgba(255,255,255,0.025)" stroke-width="1"></line><line x1="480" y1="0" x2="480" y2="900" stroke="rgba(255,255,255,0.025)" stroke-width="1"></line><line x1="600" y1="0" x2="600" y2="900" stroke="rgba(255,255,255,0.025)" stroke-width="1"></line><line x1="720" y1="0" x2="720" y2="900" stroke="rgba(255,255,255,0.025)" stroke-width="1"></line><line x1="840" y1="0" x2="840" y2="900" stroke="rgba(255,255,255,0.025)" stroke-width="1"></line><line x1="960" y1="0" x2="960" y2="900" stroke="rgba(255,255,255,0.025)" stroke-width="1"></line><line x1="1080" y1="0" x2="1080" y2="900" stroke="rgba(255,255,255,0.025)" stroke-width="1"></line><line x1="1200" y1="0" x2="1200" y2="900" stroke="rgba(255,255,255,0.025)" stroke-width="1"></line><line x1="0" y1="0" x2="1200" y2="0" stroke="rgba(255,255,255,0.025)" stroke-width="1"></line><line x1="0" y1="120" x2="1200" y2="120" stroke="rgba(255,255,255,0.025)" stroke-width="1"></line><line x1="0" y1="240" x2="1200" y2="240" stroke="rgba(255,255,255,0.025)" stroke-width="1"></line><line x1="0" y1="360" x2="1200" y2="360" stroke="rgba(255,255,255,0.025)" stroke-width="1"></line><line x1="0" y1="480" x2="1200" y2="480" stroke="rgba(255,255,255,0.025)" stroke-width="1"></line><line x1="0" y1="600" x2="1200" y2="600" stroke="rgba(255,255,255,0.025)" stroke-width="1"></line><line x1="0" y1="720" x2="1200" y2="720" stroke="rgba(255,255,255,0.025)" stroke-width="1"></line><line x1="0" y1="840" x2="1200" y2="840" stroke="rgba(255,255,255,0.025)" stroke-width="1"></line></g><radialGradient id="vig" cx="50%" cy="45%" r="75%"><stop offset="55%" stop-color="rgba(0,0,0,0)"></stop><stop offset="100%" stop-color="rgba(6,9,13,0.55)"></stop></radialGradient><rect width="1200" height="900" fill="url(#vig)"></rect></svg>