<svg xmlns="http://www.w3.org/2000/svg" width="720" height="720" viewBox="0 0 720 720">
<g>
<path d="M0.0 16.4 L8.0 18.2 L16.0 20.0 L24.0 21.7 L32.0 23.4 L40.0 24.8 L48.0 26.2 L56.0 27.3 L64.0 28.2 L72.0 28.9 L80.0 29.4 L88.0 29.7 L96.0 29.7 L104.0 29.6 L112.0 29.3 L120.0 28.9 L128.0 28.4 L136.0 27.7 L144.0 27.0 L152.0 26.3 L160.0 25.6 L168.0 24.9 L176.0 24.2 L184.0 23.6 L192.0 23.0 L200.0 22.5 L208.0 22.1 L216.0 21.8 L224.0 21.5 L232.0 21.3 L240.0 21.1 L248.0 21.0 L256.0 20.9 L264.0 20.8 L272.0 20.7 L280.0 20.5 L288.0 20.3 L296.0 20.1 L304.0 19.8 L312.0 19.5 L320.0 19.1 L328.0 18.6 L336.0 18.1 L344.0 17.5 L352.0 17.0 L360.0 16.4 L368.0 15.8 L376.0 15.2 L384.0 14.6 L392.0 14.1 L400.0 13.7 L408.0 13.3 L416.0 12.9 L424.0 12.6 L432.0 12.4 L440.0 12.2 L448.0 12.1 L456.0 11.9 L464.0 11.8 L472.0 11.7 L480.0 11.6 L488.0 11.4 L496.0 11.2 L504.0 11.0 L512.0 10.6 L520.0 10.2 L528.0 9.7 L536.0 9.2 L544.0 8.5 L552.0 7.9 L560.0 7.1 L568.0 6.4 L576.0 5.7 L584.0 5.0 L592.0 4.3 L600.0 3.8 L608.0 3.4 L616.0 3.1 L624.0 3.0 L632.0 3.1 L640.0 3.3 L648.0 3.8 L656.0 4.5 L664.0 5.5 L672.0 6.6 L680.0 7.9 L688.0 9.4 L696.0 11.0 L704.0 12.7 L712.0 14.5 L720.0 16.4 " fill="none" stroke="rgba(255,255,255,0.060)" stroke-width="1.4"></path>
<path d="M0.0 70.8 L8.0 72.5 L16.0 73.8 L24.0 74.8 L32.0 75.5 L40.0 75.7 L48.0 75.5 L56.0 75.0 L64.0 74.0 L72.0 72.8 L80.0 71.3 L88.0 69.5 L96.0 67.5 L104.0 65.5 L112.0 63.3 L120.0 61.2 L128.0 59.1 L136.0 57.1 L144.0 55.2 L152.0 53.6 L160.0 52.2 L168.0 51.0 L176.0 50.1 L184.0 49.4 L192.0 49.0 L200.0 48.8 L208.0 48.8 L216.0 49.0 L224.0 49.3 L232.0 49.7 L240.0 50.1 L248.0 50.5 L256.0 50.9 L264.0 51.2 L272.0 51.3 L280.0 51.3 L288.0 51.2 L296.0 50.8 L304.0 50.3 L312.0 49.6 L320.0 48.7 L328.0 47.6 L336.0 46.4 L344.0 45.1 L352.0 43.8 L360.0 42.4 L368.0 41.0 L376.0 39.6 L384.0 38.3 L392.0 37.1 L400.0 36.1 L408.0 35.1 L416.0 34.3 L424.0 33.6 L432.0 33.1 L440.0 32.7 L448.0 32.4 L456.0 32.3 L464.0 32.2 L472.0 32.2 L480.0 32.3 L488.0 32.4 L496.0 32.5 L504.0 32.7 L512.0 32.9 L520.0 33.0 L528.0 33.2 L536.0 33.4 L544.0 33.6 L552.0 33.9 L560.0 34.2 L568.0 34.6 L576.0 35.2 L584.0 35.9 L592.0 36.8 L600.0 37.8 L608.0 39.1 L616.0 40.6 L624.0 42.3 L632.0 44.2 L640.0 46.3 L648.0 48.6 L656.0 51.0 L664.0 53.6 L672.0 56.3 L680.0 58.9 L688.0 61.6 L696.0 64.2 L704.0 66.6 L712.0 68.8 L720.0 70.8 " fill="none" stroke="rgba(255,255,255,0.032)" stroke-width="1"></path>
<path d="M0.0 107.9 L8.0 107.2 L16.0 106.1 L24.0 104.8 L32.0 103.1 L40.0 101.2 L48.0 99.1 L56.0 96.7 L64.0 94.3 L72.0 91.8 L80.0 89.3 L88.0 86.8 L96.0 84.4 L104.0 82.2 L112.0 80.2 L120.0 78.5 L128.0 77.0 L136.0 75.9 L144.0 75.1 L152.0 74.6 L160.0 74.4 L168.0 74.5 L176.0 74.9 L184.0 75.4 L192.0 76.2 L200.0 77.0 L208.0 77.9 L216.0 78.8 L224.0 79.6 L232.0 80.2 L240.0 80.8 L248.0 81.0 L256.0 81.1 L264.0 80.9 L272.0 80.3 L280.0 79.5 L288.0 78.5 L296.0 77.1 L304.0 75.6 L312.0 73.9 L320.0 72.0 L328.0 70.1 L336.0 68.1 L344.0 66.2 L352.0 64.4 L360.0 62.7 L368.0 61.2 L376.0 59.9 L384.0 58.9 L392.0 58.2 L400.0 57.8 L408.0 57.7 L416.0 58.0 L424.0 58.5 L432.0 59.3 L440.0 60.4 L448.0 61.7 L456.0 63.2 L464.0 64.8 L472.0 66.5 L480.0 68.4 L488.0 70.2 L496.0 72.1 L504.0 73.9 L512.0 75.7 L520.0 77.5 L528.0 79.2 L536.0 80.8 L544.0 82.4 L552.0 83.9 L560.0 85.4 L568.0 86.9 L576.0 88.3 L584.0 89.8 L592.0 91.3 L600.0 92.8 L608.0 94.3 L616.0 95.8 L624.0 97.4 L632.0 98.9 L640.0 100.5 L648.0 102.0 L656.0 103.4 L664.0 104.7 L672.0 105.8 L680.0 106.8 L688.0 107.6 L696.0 108.1 L704.0 108.3 L712.0 108.3 L720.0 107.9 " fill="none" stroke="rgba(255,255,255,0.032)" stroke-width="1"></path>
<path d="M0.0 122.3 L8.0 121.1 L16.0 119.9 L24.0 118.5 L32.0 117.1 L40.0 115.7 L48.0 114.3 L56.0 113.0 L64.0 111.6 L72.0 110.4 L80.0 109.3 L88.0 108.4 L96.0 107.6 L104.0 106.9 L112.0 106.5 L120.0 106.3 L128.0 106.2 L136.0 106.3 L144.0 106.6 L152.0 107.0 L160.0 107.5 L168.0 108.0 L176.0 108.6 L184.0 109.2 L192.0 109.7 L200.0 110.2 L208.0 110.5 L216.0 110.7 L224.0 110.7 L232.0 110.5 L240.0 110.2 L248.0 109.6 L256.0 108.8 L264.0 107.9 L272.0 106.9 L280.0 105.7 L288.0 104.4 L296.0 103.1 L304.0 101.8 L312.0 100.6 L320.0 99.5 L328.0 98.5 L336.0 97.7 L344.0 97.1 L352.0 96.8 L360.0 96.7 L368.0 97.0 L376.0 97.5 L384.0 98.4 L392.0 99.5 L400.0 100.9 L408.0 102.6 L416.0 104.4 L424.0 106.4 L432.0 108.6 L440.0 110.8 L448.0 113.0 L456.0 115.2 L464.0 117.4 L472.0 119.5 L480.0 121.5 L488.0 123.3 L496.0 124.9 L504.0 126.3 L512.0 127.5 L520.0 128.5 L528.0 129.4 L536.0 130.0 L544.0 130.4 L552.0 130.7 L560.0 130.9 L568.0 130.9 L576.0 130.9 L584.0 130.7 L592.0 130.6 L600.0 130.3 L608.0 130.1 L616.0 129.8 L624.0 129.5 L632.0 129.2 L640.0 128.9 L648.0 128.6 L656.0 128.2 L664.0 127.7 L672.0 127.2 L680.0 126.7 L688.0 126.0 L696.0 125.2 L704.0 124.4 L712.0 123.4 L720.0 122.3 " fill="none" stroke="rgba(255,255,255,0.032)" stroke-width="1"></path>
<path d="M0.0 146.3 L8.0 146.0 L16.0 145.7 L24.0 145.4 L32.0 145.1 L40.0 144.8 L48.0 144.4 L56.0 144.1 L64.0 143.9 L72.0 143.6 L80.0 143.4 L88.0 143.2 L96.0 143.1 L104.0 143.1 L112.0 143.0 L120.0 143.1 L128.0 143.1 L136.0 143.2 L144.0 143.3 L152.0 143.4 L160.0 143.6 L168.0 143.7 L176.0 143.8 L184.0 143.8 L192.0 143.9 L200.0 143.9 L208.0 143.8 L216.0 143.7 L224.0 143.5 L232.0 143.3 L240.0 143.1 L248.0 142.9 L256.0 142.6 L264.0 142.3 L272.0 142.0 L280.0 141.8 L288.0 141.6 L296.0 141.5 L304.0 141.5 L312.0 141.5 L320.0 141.7 L328.0 142.0 L336.0 142.3 L344.0 142.8 L352.0 143.5 L360.0 144.2 L368.0 145.0 L376.0 145.9 L384.0 146.9 L392.0 147.9 L400.0 149.0 L408.0 150.1 L416.0 151.1 L424.0 152.1 L432.0 153.1 L440.0 154.0 L448.0 154.8 L456.0 155.4 L464.0 156.0 L472.0 156.4 L480.0 156.6 L488.0 156.8 L496.0 156.8 L504.0 156.6 L512.0 156.4 L520.0 156.0 L528.0 155.6 L536.0 155.1 L544.0 154.5 L552.0 153.9 L560.0 153.3 L568.0 152.6 L576.0 152.0 L584.0 151.4 L592.0 150.9 L600.0 150.3 L608.0 149.9 L616.0 149.4 L624.0 149.1 L632.0 148.8 L640.0 148.5 L648.0 148.2 L656.0 148.0 L664.0 147.8 L672.0 147.6 L680.0 147.4 L688.0 147.3 L696.0 147.0 L704.0 146.8 L712.0 146.6 L720.0 146.3 " fill="none" stroke="rgba(255,255,255,0.032)" stroke-width="1"></path>
<path d="M0.0 179.6 L8.0 179.5 L16.0 179.5 L24.0 179.4 L32.0 179.4 L40.0 179.3 L48.0 179.2 L56.0 179.2 L64.0 179.1 L72.0 179.1 L80.0 179.0 L88.0 179.0 L96.0 179.0 L104.0 178.9 L112.0 178.9 L120.0 178.9 L128.0 178.9 L136.0 179.0 L144.0 179.0 L152.0 179.0 L160.0 179.1 L168.0 179.1 L176.0 179.1 L184.0 179.2 L192.0 179.2 L200.0 179.3 L208.0 179.3 L216.0 179.3 L224.0 179.4 L232.0 179.4 L240.0 179.4 L248.0 179.5 L256.0 179.5 L264.0 179.6 L272.0 179.6 L280.0 179.7 L288.0 179.8 L296.0 179.9 L304.0 180.0 L312.0 180.1 L320.0 180.2 L328.0 180.3 L336.0 180.5 L344.0 180.6 L352.0 180.8 L360.0 181.0 L368.0 181.1 L376.0 181.3 L384.0 181.5 L392.0 181.6 L400.0 181.7 L408.0 181.8 L416.0 181.9 L424.0 182.0 L432.0 182.0 L440.0 182.0 L448.0 182.0 L456.0 181.9 L464.0 181.8 L472.0 181.7 L480.0 181.6 L488.0 181.5 L496.0 181.3 L504.0 181.1 L512.0 180.9 L520.0 180.8 L528.0 180.6 L536.0 180.4 L544.0 180.2 L552.0 180.1 L560.0 179.9 L568.0 179.8 L576.0 179.7 L584.0 179.6 L592.0 179.5 L600.0 179.5 L608.0 179.5 L616.0 179.4 L624.0 179.4 L632.0 179.5 L640.0 179.5 L648.0 179.5 L656.0 179.5 L664.0 179.6 L672.0 179.6 L680.0 179.6 L688.0 179.6 L696.0 179.6 L704.0 179.6 L712.0 179.6 L720.0 179.6 " fill="none" stroke="rgba(255,255,255,0.060)" stroke-width="1.4"></path>
<path d="M0.0 211.2 L8.0 211.0 L16.0 210.8 L24.0 210.6 L32.0 210.4 L40.0 210.2 L48.0 210.0 L56.0 209.9 L64.0 209.7 L72.0 209.7 L80.0 209.7 L88.0 209.7 L96.0 209.8 L104.0 209.9 L112.0 210.0 L120.0 210.2 L128.0 210.5 L136.0 210.7 L144.0 211.0 L152.0 211.3 L160.0 211.6 L168.0 211.9 L176.0 212.3 L184.0 212.6 L192.0 212.9 L200.0 213.2 L208.0 213.4 L216.0 213.7 L224.0 213.9 L232.0 214.2 L240.0 214.4 L248.0 214.6 L256.0 214.8 L264.0 215.0 L272.0 215.1 L280.0 215.3 L288.0 215.5 L296.0 215.7 L304.0 215.9 L312.0 216.0 L320.0 216.2 L328.0 216.4 L336.0 216.5 L344.0 216.7 L352.0 216.8 L360.0 216.9 L368.0 216.9 L376.0 217.0 L384.0 216.9 L392.0 216.9 L400.0 216.8 L408.0 216.6 L416.0 216.4 L424.0 216.1 L432.0 215.8 L440.0 215.4 L448.0 215.0 L456.0 214.6 L464.0 214.1 L472.0 213.7 L480.0 213.2 L488.0 212.7 L496.0 212.3 L504.0 211.8 L512.0 211.4 L520.0 211.1 L528.0 210.8 L536.0 210.5 L544.0 210.3 L552.0 210.2 L560.0 210.1 L568.0 210.1 L576.0 210.1 L584.0 210.2 L592.0 210.3 L600.0 210.5 L608.0 210.7 L616.0 210.9 L624.0 211.0 L632.0 211.2 L640.0 211.4 L648.0 211.6 L656.0 211.7 L664.0 211.7 L672.0 211.8 L680.0 211.8 L688.0 211.7 L696.0 211.7 L704.0 211.5 L712.0 211.4 L720.0 211.2 " fill="none" stroke="rgba(255,255,255,0.032)" stroke-width="1"></path>
<path d="M0.0 238.1 L8.0 237.5 L16.0 237.0 L24.0 236.7 L32.0 236.5 L40.0 236.4 L48.0 236.6 L56.0 237.0 L64.0 237.5 L72.0 238.3 L80.0 239.2 L88.0 240.3 L96.0 241.5 L104.0 242.9 L112.0 244.4 L120.0 245.9 L128.0 247.5 L136.0 249.0 L144.0 250.5 L152.0 252.0 L160.0 253.4 L168.0 254.6 L176.0 255.7 L184.0 256.7 L192.0 257.5 L200.0 258.2 L208.0 258.6 L216.0 259.0 L224.0 259.1 L232.0 259.2 L240.0 259.1 L248.0 258.9 L256.0 258.6 L264.0 258.3 L272.0 257.9 L280.0 257.4 L288.0 256.9 L296.0 256.4 L304.0 255.9 L312.0 255.4 L320.0 254.9 L328.0 254.4 L336.0 253.8 L344.0 253.2 L352.0 252.6 L360.0 252.0 L368.0 251.3 L376.0 250.5 L384.0 249.7 L392.0 248.9 L400.0 247.9 L408.0 247.0 L416.0 245.9 L424.0 244.8 L432.0 243.7 L440.0 242.6 L448.0 241.5 L456.0 240.4 L464.0 239.4 L472.0 238.4 L480.0 237.6 L488.0 236.8 L496.0 236.2 L504.0 235.7 L512.0 235.4 L520.0 235.2 L528.0 235.2 L536.0 235.4 L544.0 235.7 L552.0 236.1 L560.0 236.7 L568.0 237.3 L576.0 238.0 L584.0 238.7 L592.0 239.4 L600.0 240.1 L608.0 240.8 L616.0 241.3 L624.0 241.8 L632.0 242.1 L640.0 242.3 L648.0 242.4 L656.0 242.3 L664.0 242.0 L672.0 241.7 L680.0 241.2 L688.0 240.6 L696.0 240.0 L704.0 239.4 L712.0 238.7 L720.0 238.1 " fill="none" stroke="rgba(255,255,255,0.032)" stroke-width="1"></path>
<path d="M0.0 269.8 L8.0 270.3 L16.0 271.1 L24.0 272.2 L32.0 273.5 L40.0 275.2 L48.0 277.2 L56.0 279.4 L64.0 281.8 L72.0 284.3 L80.0 287.0 L88.0 289.7 L96.0 292.4 L104.0 295.0 L112.0 297.5 L120.0 299.7 L128.0 301.8 L136.0 303.5 L144.0 304.8 L152.0 305.8 L160.0 306.4 L168.0 306.6 L176.0 306.4 L184.0 305.8 L192.0 304.9 L200.0 303.6 L208.0 302.0 L216.0 300.2 L224.0 298.2 L232.0 296.0 L240.0 293.8 L248.0 291.5 L256.0 289.2 L264.0 287.0 L272.0 284.9 L280.0 282.9 L288.0 281.1 L296.0 279.4 L304.0 277.9 L312.0 276.5 L320.0 275.4 L328.0 274.3 L336.0 273.4 L344.0 272.6 L352.0 271.9 L360.0 271.3 L368.0 270.7 L376.0 270.1 L384.0 269.5 L392.0 268.9 L400.0 268.3 L408.0 267.6 L416.0 267.0 L424.0 266.3 L432.0 265.6 L440.0 265.0 L448.0 264.4 L456.0 263.8 L464.0 263.3 L472.0 263.0 L480.0 262.7 L488.0 262.6 L496.0 262.7 L504.0 262.9 L512.0 263.2 L520.0 263.7 L528.0 264.4 L536.0 265.1 L544.0 266.0 L552.0 266.9 L560.0 267.8 L568.0 268.7 L576.0 269.6 L584.0 270.5 L592.0 271.2 L600.0 271.8 L608.0 272.3 L616.0 272.6 L624.0 272.7 L632.0 272.7 L640.0 272.5 L648.0 272.2 L656.0 271.8 L664.0 271.4 L672.0 270.9 L680.0 270.4 L688.0 270.0 L696.0 269.7 L704.0 269.5 L712.0 269.5 L720.0 269.8 " fill="none" stroke="rgba(255,255,255,0.032)" stroke-width="1"></path>
<path d="M0.0 318.7 L8.0 320.4 L16.0 322.1 L24.0 324.0 L32.0 326.1 L40.0 328.1 L48.0 330.2 L56.0 332.3 L64.0 334.2 L72.0 336.0 L80.0 337.6 L88.0 339.0 L96.0 340.0 L104.0 340.7 L112.0 340.9 L120.0 340.8 L128.0 340.2 L136.0 339.2 L144.0 337.8 L152.0 335.9 L160.0 333.7 L168.0 331.1 L176.0 328.3 L184.0 325.2 L192.0 322.0 L200.0 318.7 L208.0 315.4 L216.0 312.2 L224.0 309.1 L232.0 306.1 L240.0 303.5 L248.0 301.0 L256.0 299.0 L264.0 297.2 L272.0 295.8 L280.0 294.8 L288.0 294.1 L296.0 293.7 L304.0 293.7 L312.0 293.9 L320.0 294.2 L328.0 294.8 L336.0 295.5 L344.0 296.2 L352.0 296.9 L360.0 297.7 L368.0 298.3 L376.0 298.9 L384.0 299.3 L392.0 299.6 L400.0 299.8 L408.0 299.9 L416.0 299.8 L424.0 299.6 L432.0 299.3 L440.0 299.0 L448.0 298.6 L456.0 298.3 L464.0 298.0 L472.0 297.7 L480.0 297.5 L488.0 297.5 L496.0 297.6 L504.0 297.8 L512.0 298.2 L520.0 298.7 L528.0 299.3 L536.0 300.0 L544.0 300.9 L552.0 301.7 L560.0 302.7 L568.0 303.7 L576.0 304.6 L584.0 305.5 L592.0 306.4 L600.0 307.2 L608.0 308.0 L616.0 308.7 L624.0 309.3 L632.0 309.8 L640.0 310.4 L648.0 310.9 L656.0 311.4 L664.0 311.9 L672.0 312.5 L680.0 313.2 L688.0 314.0 L696.0 314.9 L704.0 316.0 L712.0 317.3 L720.0 318.7 " fill="none" stroke="rgba(255,255,255,0.032)" stroke-width="1"></path>
<path d="M0.0 359.1 L8.0 359.4 L16.0 359.8 L24.0 360.0 L32.0 360.2 L40.0 360.3 L48.0 360.3 L56.0 360.2 L64.0 359.9 L72.0 359.4 L80.0 358.7 L88.0 357.9 L96.0 356.8 L104.0 355.4 L112.0 353.9 L120.0 352.2 L128.0 350.3 L136.0 348.2 L144.0 346.1 L152.0 343.8 L160.0 341.6 L168.0 339.3 L176.0 337.1 L184.0 335.0 L192.0 333.1 L200.0 331.3 L208.0 329.8 L216.0 328.5 L224.0 327.5 L232.0 326.7 L240.0 326.3 L248.0 326.2 L256.0 326.4 L264.0 326.8 L272.0 327.5 L280.0 328.3 L288.0 329.4 L296.0 330.5 L304.0 331.7 L312.0 333.0 L320.0 334.2 L328.0 335.4 L336.0 336.5 L344.0 337.4 L352.0 338.2 L360.0 338.8 L368.0 339.2 L376.0 339.4 L384.0 339.5 L392.0 339.4 L400.0 339.1 L408.0 338.7 L416.0 338.2 L424.0 337.7 L432.0 337.1 L440.0 336.6 L448.0 336.1 L456.0 335.7 L464.0 335.4 L472.0 335.2 L480.0 335.3 L488.0 335.4 L496.0 335.8 L504.0 336.3 L512.0 337.0 L520.0 337.9 L528.0 338.9 L536.0 340.0 L544.0 341.3 L552.0 342.5 L560.0 343.9 L568.0 345.2 L576.0 346.5 L584.0 347.8 L592.0 349.0 L600.0 350.2 L608.0 351.2 L616.0 352.2 L624.0 353.1 L632.0 353.9 L640.0 354.6 L648.0 355.2 L656.0 355.7 L664.0 356.2 L672.0 356.7 L680.0 357.1 L688.0 357.5 L696.0 357.9 L704.0 358.3 L712.0 358.7 L720.0 359.1 " fill="none" stroke="rgba(255,255,255,0.060)" stroke-width="1.4"></path>
<path d="M0.0 380.4 L8.0 379.9 L16.0 379.5 L24.0 379.1 L32.0 378.6 L40.0 378.2 L48.0 377.7 L56.0 377.2 L64.0 376.7 L72.0 376.2 L80.0 375.6 L88.0 375.1 L96.0 374.5 L104.0 373.9 L112.0 373.2 L120.0 372.6 L128.0 372.0 L136.0 371.4 L144.0 370.8 L152.0 370.3 L160.0 369.8 L168.0 369.4 L176.0 369.1 L184.0 368.9 L192.0 368.8 L200.0 368.7 L208.0 368.8 L216.0 369.0 L224.0 369.2 L232.0 369.6 L240.0 370.1 L248.0 370.6 L256.0 371.1 L264.0 371.7 L272.0 372.3 L280.0 372.9 L288.0 373.5 L296.0 374.1 L304.0 374.6 L312.0 375.1 L320.0 375.4 L328.0 375.7 L336.0 375.9 L344.0 376.0 L352.0 376.0 L360.0 376.0 L368.0 375.8 L376.0 375.6 L384.0 375.4 L392.0 375.1 L400.0 374.8 L408.0 374.6 L416.0 374.3 L424.0 374.1 L432.0 374.0 L440.0 373.9 L448.0 373.9 L456.0 374.0 L464.0 374.2 L472.0 374.5 L480.0 375.0 L488.0 375.5 L496.0 376.0 L504.0 376.7 L512.0 377.4 L520.0 378.2 L528.0 379.0 L536.0 379.7 L544.0 380.5 L552.0 381.2 L560.0 381.9 L568.0 382.6 L576.0 383.1 L584.0 383.6 L592.0 384.0 L600.0 384.2 L608.0 384.4 L616.0 384.5 L624.0 384.5 L632.0 384.4 L640.0 384.2 L648.0 384.0 L656.0 383.7 L664.0 383.3 L672.0 383.0 L680.0 382.6 L688.0 382.1 L696.0 381.7 L704.0 381.2 L712.0 380.8 L720.0 380.4 " fill="none" stroke="rgba(255,255,255,0.032)" stroke-width="1"></path>
<path d="M0.0 408.4 L8.0 408.4 L16.0 408.3 L24.0 408.2 L32.0 408.2 L40.0 408.1 L48.0 408.1 L56.0 408.1 L64.0 408.1 L72.0 408.0 L80.0 408.0 L88.0 408.0 L96.0 408.0 L104.0 407.9 L112.0 407.9 L120.0 407.9 L128.0 407.9 L136.0 407.9 L144.0 407.9 L152.0 407.9 L160.0 407.9 L168.0 407.9 L176.0 408.0 L184.0 408.0 L192.0 408.1 L200.0 408.1 L208.0 408.2 L216.0 408.3 L224.0 408.4 L232.0 408.5 L240.0 408.6 L248.0 408.7 L256.0 408.8 L264.0 408.9 L272.0 408.9 L280.0 409.0 L288.0 409.1 L296.0 409.1 L304.0 409.2 L312.0 409.2 L320.0 409.2 L328.0 409.2 L336.0 409.2 L344.0 409.2 L352.0 409.2 L360.0 409.1 L368.0 409.1 L376.0 409.1 L384.0 409.0 L392.0 409.0 L400.0 409.0 L408.0 409.0 L416.0 409.0 L424.0 409.1 L432.0 409.1 L440.0 409.2 L448.0 409.3 L456.0 409.4 L464.0 409.5 L472.0 409.7 L480.0 409.8 L488.0 410.0 L496.0 410.1 L504.0 410.3 L512.0 410.4 L520.0 410.5 L528.0 410.7 L536.0 410.8 L544.0 410.8 L552.0 410.9 L560.0 410.9 L568.0 410.9 L576.0 410.9 L584.0 410.8 L592.0 410.8 L600.0 410.7 L608.0 410.5 L616.0 410.4 L624.0 410.2 L632.0 410.1 L640.0 409.9 L648.0 409.7 L656.0 409.5 L664.0 409.4 L672.0 409.2 L680.0 409.0 L688.0 408.9 L696.0 408.8 L704.0 408.6 L712.0 408.5 L720.0 408.4 " fill="none" stroke="rgba(255,255,255,0.032)" stroke-width="1"></path>
<path d="M0.0 437.9 L8.0 438.0 L16.0 438.2 L24.0 438.4 L32.0 438.6 L40.0 438.8 L48.0 439.0 L56.0 439.2 L64.0 439.4 L72.0 439.6 L80.0 439.7 L88.0 439.8 L96.0 439.9 L104.0 440.0 L112.0 440.1 L120.0 440.2 L128.0 440.2 L136.0 440.2 L144.0 440.3 L152.0 440.3 L160.0 440.4 L168.0 440.4 L176.0 440.5 L184.0 440.6 L192.0 440.7 L200.0 440.9 L208.0 441.0 L216.0 441.2 L224.0 441.4 L232.0 441.5 L240.0 441.7 L248.0 441.9 L256.0 442.1 L264.0 442.3 L272.0 442.4 L280.0 442.6 L288.0 442.7 L296.0 442.8 L304.0 442.9 L312.0 443.0 L320.0 443.0 L328.0 443.0 L336.0 443.1 L344.0 443.1 L352.0 443.1 L360.0 443.2 L368.0 443.2 L376.0 443.3 L384.0 443.3 L392.0 443.4 L400.0 443.6 L408.0 443.7 L416.0 443.9 L424.0 444.1 L432.0 444.3 L440.0 444.6 L448.0 444.8 L456.0 445.1 L464.0 445.3 L472.0 445.5 L480.0 445.7 L488.0 445.9 L496.0 446.0 L504.0 446.1 L512.0 446.1 L520.0 446.1 L528.0 446.0 L536.0 445.8 L544.0 445.5 L552.0 445.2 L560.0 444.8 L568.0 444.4 L576.0 443.9 L584.0 443.4 L592.0 442.8 L600.0 442.3 L608.0 441.7 L616.0 441.1 L624.0 440.5 L632.0 440.0 L640.0 439.5 L648.0 439.1 L656.0 438.7 L664.0 438.4 L672.0 438.1 L680.0 437.9 L688.0 437.8 L696.0 437.7 L704.0 437.7 L712.0 437.8 L720.0 437.9 " fill="none" stroke="rgba(255,255,255,0.032)" stroke-width="1"></path>
<path d="M0.0 466.4 L8.0 467.7 L16.0 468.9 L24.0 470.0 L32.0 471.0 L40.0 471.9 L48.0 472.7 L56.0 473.3 L64.0 473.8 L72.0 474.1 L80.0 474.3 L88.0 474.3 L96.0 474.3 L104.0 474.1 L112.0 473.9 L120.0 473.7 L128.0 473.5 L136.0 473.3 L144.0 473.1 L152.0 473.0 L160.0 473.0 L168.0 473.1 L176.0 473.3 L184.0 473.6 L192.0 474.0 L200.0 474.5 L208.0 475.1 L216.0 475.8 L224.0 476.5 L232.0 477.3 L240.0 478.1 L248.0 478.9 L256.0 479.7 L264.0 480.5 L272.0 481.2 L280.0 481.9 L288.0 482.4 L296.0 482.9 L304.0 483.4 L312.0 483.7 L320.0 484.0 L328.0 484.2 L336.0 484.3 L344.0 484.4 L352.0 484.4 L360.0 484.4 L368.0 484.4 L376.0 484.4 L384.0 484.4 L392.0 484.4 L400.0 484.3 L408.0 484.3 L416.0 484.3 L424.0 484.3 L432.0 484.2 L440.0 484.1 L448.0 483.9 L456.0 483.7 L464.0 483.4 L472.0 482.9 L480.0 482.4 L488.0 481.7 L496.0 480.9 L504.0 479.9 L512.0 478.8 L520.0 477.5 L528.0 476.2 L536.0 474.7 L544.0 473.1 L552.0 471.5 L560.0 469.8 L568.0 468.2 L576.0 466.5 L584.0 465.0 L592.0 463.5 L600.0 462.2 L608.0 461.1 L616.0 460.1 L624.0 459.4 L632.0 458.9 L640.0 458.6 L648.0 458.5 L656.0 458.7 L664.0 459.2 L672.0 459.8 L680.0 460.6 L688.0 461.6 L696.0 462.7 L704.0 463.9 L712.0 465.2 L720.0 466.4 " fill="none" stroke="rgba(255,255,255,0.032)" stroke-width="1"></path>
<path d="M0.0 509.2 L8.0 510.7 L16.0 511.8 L24.0 512.7 L32.0 513.3 L40.0 513.6 L48.0 513.6 L56.0 513.4 L64.0 512.9 L72.0 512.3 L80.0 511.6 L88.0 510.8 L96.0 510.0 L104.0 509.3 L112.0 508.6 L120.0 508.1 L128.0 507.8 L136.0 507.6 L144.0 507.8 L152.0 508.1 L160.0 508.8 L168.0 509.7 L176.0 510.8 L184.0 512.1 L192.0 513.6 L200.0 515.3 L208.0 517.0 L216.0 518.8 L224.0 520.6 L232.0 522.3 L240.0 523.9 L248.0 525.3 L256.0 526.6 L264.0 527.6 L272.0 528.4 L280.0 528.9 L288.0 529.1 L296.0 529.0 L304.0 528.7 L312.0 528.1 L320.0 527.3 L328.0 526.3 L336.0 525.1 L344.0 523.8 L352.0 522.4 L360.0 520.9 L368.0 519.3 L376.0 517.7 L384.0 516.1 L392.0 514.6 L400.0 513.0 L408.0 511.6 L416.0 510.1 L424.0 508.7 L432.0 507.3 L440.0 506.0 L448.0 504.6 L456.0 503.2 L464.0 501.8 L472.0 500.4 L480.0 499.0 L488.0 497.5 L496.0 496.0 L504.0 494.4 L512.0 492.9 L520.0 491.3 L528.0 489.8 L536.0 488.3 L544.0 486.9 L552.0 485.7 L560.0 484.6 L568.0 483.7 L576.0 483.0 L584.0 482.6 L592.0 482.4 L600.0 482.6 L608.0 483.1 L616.0 483.9 L624.0 485.0 L632.0 486.4 L640.0 488.1 L648.0 489.9 L656.0 492.0 L664.0 494.2 L672.0 496.5 L680.0 498.9 L688.0 501.2 L696.0 503.4 L704.0 505.6 L712.0 507.5 L720.0 509.2 " fill="none" stroke="rgba(255,255,255,0.060)" stroke-width="1.4"></path>
<path d="M0.0 550.9 L8.0 551.0 L16.0 550.9 L24.0 550.6 L32.0 550.1 L40.0 549.5 L48.0 548.7 L56.0 547.9 L64.0 547.1 L72.0 546.3 L80.0 545.7 L88.0 545.2 L96.0 544.8 L104.0 544.7 L112.0 544.8 L120.0 545.3 L128.0 545.9 L136.0 546.9 L144.0 548.1 L152.0 549.5 L160.0 551.0 L168.0 552.8 L176.0 554.5 L184.0 556.3 L192.0 558.1 L200.0 559.7 L208.0 561.2 L216.0 562.5 L224.0 563.4 L232.0 564.0 L240.0 564.3 L248.0 564.2 L256.0 563.7 L264.0 562.8 L272.0 561.4 L280.0 559.8 L288.0 557.8 L296.0 555.5 L304.0 552.9 L312.0 550.2 L320.0 547.3 L328.0 544.3 L336.0 541.4 L344.0 538.5 L352.0 535.7 L360.0 533.0 L368.0 530.5 L376.0 528.2 L384.0 526.2 L392.0 524.4 L400.0 522.9 L408.0 521.7 L416.0 520.6 L424.0 519.9 L432.0 519.3 L440.0 518.9 L448.0 518.6 L456.0 518.5 L464.0 518.5 L472.0 518.5 L480.0 518.6 L488.0 518.8 L496.0 519.0 L504.0 519.2 L512.0 519.4 L520.0 519.7 L528.0 520.1 L536.0 520.5 L544.0 521.0 L552.0 521.5 L560.0 522.2 L568.0 523.1 L576.0 524.0 L584.0 525.2 L592.0 526.5 L600.0 527.9 L608.0 529.5 L616.0 531.3 L624.0 533.1 L632.0 535.1 L640.0 537.0 L648.0 539.0 L656.0 541.0 L664.0 542.8 L672.0 544.6 L680.0 546.2 L688.0 547.6 L696.0 548.8 L704.0 549.7 L712.0 550.4 L720.0 550.9 " fill="none" stroke="rgba(255,255,255,0.032)" stroke-width="1"></path>
<path d="M0.0 582.1 L8.0 582.0 L16.0 581.8 L24.0 581.5 L32.0 581.2 L40.0 580.9 L48.0 580.6 L56.0 580.4 L64.0 580.2 L72.0 580.1 L80.0 580.1 L88.0 580.2 L96.0 580.5 L104.0 580.8 L112.0 581.3 L120.0 581.8 L128.0 582.5 L136.0 583.2 L144.0 583.8 L152.0 584.5 L160.0 585.2 L168.0 585.7 L176.0 586.1 L184.0 586.3 L192.0 586.3 L200.0 586.1 L208.0 585.7 L216.0 584.9 L224.0 584.0 L232.0 582.7 L240.0 581.2 L248.0 579.4 L256.0 577.4 L264.0 575.3 L272.0 573.0 L280.0 570.6 L288.0 568.2 L296.0 565.8 L304.0 563.4 L312.0 561.2 L320.0 559.1 L328.0 557.2 L336.0 555.6 L344.0 554.2 L352.0 553.1 L360.0 552.3 L368.0 551.8 L376.0 551.6 L384.0 551.8 L392.0 552.1 L400.0 552.8 L408.0 553.6 L416.0 554.6 L424.0 555.7 L432.0 557.0 L440.0 558.3 L448.0 559.6 L456.0 561.0 L464.0 562.2 L472.0 563.5 L480.0 564.6 L488.0 565.7 L496.0 566.6 L504.0 567.5 L512.0 568.2 L520.0 568.9 L528.0 569.5 L536.0 570.0 L544.0 570.5 L552.0 571.0 L560.0 571.5 L568.0 572.0 L576.0 572.5 L584.0 573.1 L592.0 573.7 L600.0 574.3 L608.0 575.0 L616.0 575.8 L624.0 576.5 L632.0 577.3 L640.0 578.1 L648.0 578.8 L656.0 579.5 L664.0 580.2 L672.0 580.8 L680.0 581.3 L688.0 581.6 L696.0 581.9 L704.0 582.1 L712.0 582.1 L720.0 582.1 " fill="none" stroke="rgba(255,255,255,0.032)" stroke-width="1"></path>
<path d="M0.0 610.4 L8.0 610.4 L16.0 610.3 L24.0 610.2 L32.0 610.1 L40.0 609.9 L48.0 609.7 L56.0 609.6 L64.0 609.4 L72.0 609.3 L80.0 609.1 L88.0 609.0 L96.0 608.8 L104.0 608.7 L112.0 608.6 L120.0 608.5 L128.0 608.4 L136.0 608.2 L144.0 608.0 L152.0 607.8 L160.0 607.5 L168.0 607.2 L176.0 606.8 L184.0 606.3 L192.0 605.8 L200.0 605.2 L208.0 604.5 L216.0 603.8 L224.0 603.0 L232.0 602.2 L240.0 601.4 L248.0 600.6 L256.0 599.8 L264.0 599.0 L272.0 598.2 L280.0 597.6 L288.0 597.0 L296.0 596.5 L304.0 596.2 L312.0 595.9 L320.0 595.8 L328.0 595.9 L336.0 596.0 L344.0 596.3 L352.0 596.8 L360.0 597.3 L368.0 598.0 L376.0 598.7 L384.0 599.5 L392.0 600.4 L400.0 601.2 L408.0 602.1 L416.0 603.0 L424.0 603.8 L432.0 604.6 L440.0 605.3 L448.0 605.9 L456.0 606.5 L464.0 606.9 L472.0 607.3 L480.0 607.6 L488.0 607.7 L496.0 607.8 L504.0 607.9 L512.0 607.8 L520.0 607.8 L528.0 607.7 L536.0 607.6 L544.0 607.4 L552.0 607.3 L560.0 607.3 L568.0 607.2 L576.0 607.2 L584.0 607.3 L592.0 607.4 L600.0 607.5 L608.0 607.7 L616.0 607.9 L624.0 608.2 L632.0 608.5 L640.0 608.7 L648.0 609.0 L656.0 609.3 L664.0 609.6 L672.0 609.8 L680.0 610.0 L688.0 610.2 L696.0 610.3 L704.0 610.4 L712.0 610.5 L720.0 610.4 " fill="none" stroke="rgba(255,255,255,0.032)" stroke-width="1"></path>
<path d="M0.0 639.2 L8.0 639.1 L16.0 639.0 L24.0 638.9 L32.0 638.8 L40.0 638.7 L48.0 638.6 L56.0 638.5 L64.0 638.3 L72.0 638.2 L80.0 638.1 L88.0 638.0 L96.0 637.9 L104.0 637.8 L112.0 637.8 L120.0 637.7 L128.0 637.6 L136.0 637.5 L144.0 637.5 L152.0 637.4 L160.0 637.3 L168.0 637.2 L176.0 637.2 L184.0 637.1 L192.0 637.0 L200.0 636.9 L208.0 636.9 L216.0 636.8 L224.0 636.7 L232.0 636.7 L240.0 636.6 L248.0 636.6 L256.0 636.6 L264.0 636.6 L272.0 636.6 L280.0 636.6 L288.0 636.6 L296.0 636.7 L304.0 636.8 L312.0 636.9 L320.0 637.0 L328.0 637.2 L336.0 637.3 L344.0 637.5 L352.0 637.7 L360.0 637.9 L368.0 638.1 L376.0 638.2 L384.0 638.4 L392.0 638.6 L400.0 638.7 L408.0 638.8 L416.0 638.9 L424.0 639.0 L432.0 639.1 L440.0 639.1 L448.0 639.1 L456.0 639.1 L464.0 639.1 L472.0 639.1 L480.0 639.0 L488.0 639.0 L496.0 638.9 L504.0 638.8 L512.0 638.8 L520.0 638.7 L528.0 638.6 L536.0 638.6 L544.0 638.6 L552.0 638.5 L560.0 638.5 L568.0 638.5 L576.0 638.6 L584.0 638.6 L592.0 638.7 L600.0 638.7 L608.0 638.8 L616.0 638.9 L624.0 639.0 L632.0 639.0 L640.0 639.1 L648.0 639.2 L656.0 639.2 L664.0 639.3 L672.0 639.3 L680.0 639.3 L688.0 639.3 L696.0 639.3 L704.0 639.3 L712.0 639.2 L720.0 639.2 " fill="none" stroke="rgba(255,255,255,0.032)" stroke-width="1"></path>
<path d="M0.0 671.1 L8.0 670.6 L16.0 670.1 L24.0 669.7 L32.0 669.2 L40.0 668.7 L48.0 668.3 L56.0 668.0 L64.0 667.6 L72.0 667.4 L80.0 667.1 L88.0 666.9 L96.0 666.8 L104.0 666.7 L112.0 666.7 L120.0 666.7 L128.0 666.7 L136.0 666.7 L144.0 666.8 L152.0 666.9 L160.0 667.0 L168.0 667.1 L176.0 667.3 L184.0 667.4 L192.0 667.5 L200.0 667.7 L208.0 667.8 L216.0 668.0 L224.0 668.1 L232.0 668.3 L240.0 668.5 L248.0 668.7 L256.0 668.9 L264.0 669.2 L272.0 669.5 L280.0 669.8 L288.0 670.1 L296.0 670.4 L304.0 670.8 L312.0 671.2 L320.0 671.5 L328.0 671.9 L336.0 672.3 L344.0 672.6 L352.0 673.0 L360.0 673.3 L368.0 673.5 L376.0 673.8 L384.0 673.9 L392.0 674.1 L400.0 674.1 L408.0 674.2 L416.0 674.1 L424.0 674.1 L432.0 673.9 L440.0 673.8 L448.0 673.6 L456.0 673.4 L464.0 673.1 L472.0 672.9 L480.0 672.7 L488.0 672.5 L496.0 672.3 L504.0 672.1 L512.0 672.0 L520.0 671.9 L528.0 671.9 L536.0 671.9 L544.0 672.0 L552.0 672.1 L560.0 672.2 L568.0 672.4 L576.0 672.6 L584.0 672.8 L592.0 673.0 L600.0 673.2 L608.0 673.4 L616.0 673.6 L624.0 673.7 L632.0 673.8 L640.0 673.9 L648.0 673.8 L656.0 673.8 L664.0 673.6 L672.0 673.4 L680.0 673.1 L688.0 672.8 L696.0 672.5 L704.0 672.0 L712.0 671.6 L720.0 671.1 " fill="none" stroke="rgba(255,255,255,0.060)" stroke-width="1.4"></path>
<path d="M0.0 691.4 L8.0 690.1 L16.0 689.0 L24.0 688.0 L32.0 687.3 L40.0 686.8 L48.0 686.5 L56.0 686.5 L64.0 686.7 L72.0 687.1 L80.0 687.8 L88.0 688.6 L96.0 689.6 L104.0 690.7 L112.0 691.9 L120.0 693.2 L128.0 694.5 L136.0 695.8 L144.0 697.1 L152.0 698.4 L160.0 699.6 L168.0 700.7 L176.0 701.7 L184.0 702.7 L192.0 703.5 L200.0 704.3 L208.0 705.0 L216.0 705.6 L224.0 706.1 L232.0 706.6 L240.0 707.1 L248.0 707.5 L256.0 708.0 L264.0 708.4 L272.0 708.8 L280.0 709.3 L288.0 709.7 L296.0 710.2 L304.0 710.7 L312.0 711.1 L320.0 711.6 L328.0 712.0 L336.0 712.4 L344.0 712.7 L352.0 713.0 L360.0 713.2 L368.0 713.3 L376.0 713.3 L384.0 713.2 L392.0 713.0 L400.0 712.7 L408.0 712.3 L416.0 711.8 L424.0 711.3 L432.0 710.7 L440.0 710.2 L448.0 709.6 L456.0 709.0 L464.0 708.5 L472.0 708.0 L480.0 707.6 L488.0 707.3 L496.0 707.1 L504.0 707.0 L512.0 707.0 L520.0 707.1 L528.0 707.3 L536.0 707.6 L544.0 707.9 L552.0 708.2 L560.0 708.6 L568.0 708.9 L576.0 709.1 L584.0 709.3 L592.0 709.4 L600.0 709.3 L608.0 709.1 L616.0 708.7 L624.0 708.1 L632.0 707.4 L640.0 706.4 L648.0 705.3 L656.0 704.0 L664.0 702.6 L672.0 701.1 L680.0 699.4 L688.0 697.8 L696.0 696.1 L704.0 694.5 L712.0 692.9 L720.0 691.4 " fill="none" stroke="rgba(255,255,255,0.032)" stroke-width="1"></path>
</g>
</svg>